<svg id="图层_1" data-name="图层 1" xmlns="http://www.w3.org/2000/svg" viewBox="0 0 361.99 124.61"><defs><style>.cls-1{fill:#7e49fc;}.cls-2{fill:#06f;}</style></defs><path d="M248.69,167.16H234.56V131.79h14.13Z" transform="translate(-89.83 -76.19)"/><path d="M241.63,129.07h0a7.42,7.42,0,0,1-7.42-7.42h0a7.42,7.42,0,0,1,7.42-7.42h0a7.42,7.42,0,0,1,7.42,7.42h0A7.42,7.42,0,0,1,241.63,129.07Z" transform="translate(-89.83 -76.19)"/><path d="M303.54,167.16H256l24.25-35.67H258v-11.2h45.58l-24.18,35.64h24.18Z" transform="translate(-89.83 -76.19)"/><path d="M359.83,146.16a21.66,21.66,0,0,1-2.25,10.26,18,18,0,0,1-5.95,6.71,25.51,25.51,0,0,1-8,3.55,34.71,34.71,0,0,1-8.53,1.09,33.94,33.94,0,0,1-11.58-2,20.55,20.55,0,0,1-9.42-6.9q-3.8-4.87-3.79-12.68V120.29h14.1v22.22a19.06,19.06,0,0,0,1.34,7.66,9.32,9.32,0,0,0,3.72,4.43,10.94,10.94,0,0,0,5.63,1.4,10.77,10.77,0,0,0,5.51-1.39,9.13,9.13,0,0,0,3.73-4.39,19,19,0,0,0,1.34-7.64V120.29h14.13Z" transform="translate(-89.83 -76.19)"/><path d="M425.43,167.16H411.29V140l-12.74,15.72h-1.12L384.65,140v27.15H370.92V120.29h12.82l14.4,17.59,14.47-17.59h12.82Z" transform="translate(-89.83 -76.19)"/><path d="M451.46,167.16H437.33V131.79h14.13Z" transform="translate(-89.83 -76.19)"/><path d="M444.39,129.07h0a7.42,7.42,0,0,1-7.42-7.42h0a7.42,7.42,0,0,1,7.42-7.42h0a7.42,7.42,0,0,1,7.42,7.42h0A7.42,7.42,0,0,1,444.39,129.07Z" transform="translate(-89.83 -76.19)"/><path class="cls-1" d="M90.51,132.82l39.32-56.63,19.79,28.69-20.07,28.7H90.91A.49.49,0,0,1,90.51,132.82Z" transform="translate(-89.83 -76.19)"/><path class="cls-1" d="M208.72,132.82,169.4,76.19l-19.78,28.69,20.06,28.7h38.64A.49.49,0,0,0,208.72,132.82Z" transform="translate(-89.83 -76.19)"/><path class="cls-2" d="M209.4,141a59.79,59.79,0,1,1-119.57,0h38a21.77,21.77,0,1,0,43.53,0Z" transform="translate(-89.83 -76.19)"/></svg>