<?xml version="1.0" encoding="iso-8859-1"?>
<!-- Generator: Adobe Illustrator 23.0.1, SVG Export Plug-In . SVG Version: 6.00 Build 0)  -->
<svg version="1.1" id="Layer_1" xmlns="http://www.w3.org/2000/svg" xmlns:xlink="http://www.w3.org/1999/xlink" x="0px" y="0px"
	 viewBox="0 0 512 512" style="enable-background:new 0 0 512 512;" xml:space="preserve">
<g>
	<path style="fill-rule:evenodd;clip-rule:evenodd;fill:#111111;" d="M70.798,328.792h9.181v-57.627h-9.181V328.792z
		 M107.529,327.928h9.376v-36.367l39.604,37.231v-56.763h-9.371v35.751l-39.609-36.614V327.928z M181.471,313.976
		c5.304,4.091,11.656,6.454,18.479,6.454c6.629,0,11.278-2.276,11.278-7.274c0-4.363-2.941-6.09-8.153-7.997l-8.434-2.912
		C186.877,299.53,181,295.526,181,286.345c0-9.817,8.905-15.18,19.615-15.18c6.537,0,12.506,1.635,17.15,4.547v9.725
		c-4.833-3.543-10.142-6.003-16.961-6.003c-5.877,0-10.239,2.184-10.239,6.731c0,4.086,2.752,5.726,7.585,7.362l9.38,3.271
		c9.099,3.179,13.263,8.09,13.263,16.179c0,10.181-8.997,15.815-20.843,15.815c-7.769,0-14.403-2.184-18.479-4.906
		C181.471,323.886,181.471,313.976,181.471,313.976z M242.223,328.792h9.186v-57.627h-9.186V328.792z M303.271,320.067
		c11.841,0,18.179-7.794,18.179-20.091c0-12.389-6.338-20.178-18.179-20.178h-11.705v40.269H303.271z M282.016,271.165h21.624
		c16.616,0,27.36,11.258,27.36,28.811c0,17.553-10.744,28.816-27.36,28.816h-21.619v-57.627H282.016z M386.099,271.165v8.633
		h-24.453v13.864h21.925v8.546h-21.925v17.858h24.453v8.725h-33.674v-57.627H386.099z M419.957,297.254h10.516
		c6.212,0,9.73-3.47,9.73-8.822c0-5.348-3.513-8.818-9.73-8.818h-10.516v17.635V297.254z M419.957,305.421v23.371h-9.366v-57.627
		h20.061c11.443,0,18.829,6.008,18.829,17.266c0,9.672-4.125,15.209-12.86,16.616l19.887,23.745H445.88l-19.256-23.371h-6.673
		H419.957z M441.207,198.388c0,9.177,5.872,13.18,13.636,15.907l8.439,2.907c5.207,1.907,8.148,3.64,8.148,7.997
		c0,4.998-4.644,7.274-11.278,7.274c-6.823,0-13.171-2.363-18.475-6.454v9.905c4.076,2.727,10.705,4.911,18.475,4.911
		c11.841,0,20.848-5.639,20.848-15.82c0-8.085-4.173-12.996-13.268-16.174l-9.38-3.271c-4.833-1.64-7.58-3.276-7.58-7.367
		c0-4.542,4.358-6.721,10.23-6.721c6.828,0,12.132,2.451,16.965,5.993v-9.72c-4.644-2.912-10.613-4.547-17.155-4.547
		c-10.71,0-19.615,5.362-19.615,15.18 M321.814,183.208v57.627h33.674v-8.716h-24.444v-17.883h21.925v-8.531h-21.925v-13.869h24.444
		v-8.628H321.814z M190.992,209.297h11.215c6.629,0,10.38-3.47,10.38-8.822c0-5.348-3.751-8.818-10.38-8.818h-11.21v17.64H190.992z
		 M190.992,217.464v23.371h-9.997v-57.627h21.406c12.205,0,20.081,6.008,20.081,17.266c0,9.672-4.392,15.209-13.714,16.616
		l21.207,23.745h-11.331l-20.542-23.371C198.101,217.464,190.992,217.464,190.992,217.464z M261.193,208.268l23.148-25.06h12.137
		l-26.064,27.593l26.914,30.034h-12.423l-23.711-26.37v26.37h-9.783v-57.627h9.783V208.268z M376.917,183.208h48.979v8.638h-19.518
		v48.989h-9.948v-48.989h-19.513V183.208z M123.897,225.185l9.609-22.08l9.609,22.08
		C143.114,225.185,123.897,225.185,123.897,225.185z M149.928,240.835h9.643l-26.021-57.627l-26.021,57.627h9.56l3.203-7.367h26.428
		L149.928,240.835z M79.693,208.083v32.752h9.468v-57.627l-29.078,30.713L31,183.208v57.627h9.473v-32.752l19.61,20.707
		L79.693,208.083z"/>
</g>
</svg>
